<svg width="50" height="50" viewBox="0 0 50 50" fill="none" xmlns="http://www.w3.org/2000/svg">
<rect width="50" height="50" rx="25" fill="#56CCF2"/>
<path d="M23.05 32.82L35.3875 20.835L32.9375 18.455L23.05 28.06L18.0625 23.215L15.6125 25.595L23.05 32.82ZM25.5 42C23.0792 42 20.8042 41.5535 18.675 40.6604C16.5458 39.7673 14.6937 38.5564 13.1188 37.0275C11.5438 35.4975 10.2972 33.6983 9.379 31.63C8.46083 29.5617 8.00117 27.3517 8 25C8 22.6483 8.45967 20.4383 9.379 18.37C10.2983 16.3017 11.5449 14.5025 13.1188 12.9725C14.6937 11.4425 16.5458 10.2315 18.675 9.3396C20.8042 8.44767 23.0792 8.00113 25.5 8C27.9208 8 30.1958 8.44653 32.325 9.3396C34.4542 10.2327 36.3062 11.4436 37.8812 12.9725C39.4562 14.5025 40.7034 16.3017 41.6227 18.37C42.5421 20.4383 43.0012 22.6483 43 25C43 27.3517 42.5403 29.5617 41.621 31.63C40.7017 33.6983 39.4551 35.4975 37.8812 37.0275C36.3062 38.5575 34.4542 39.769 32.325 40.6621C30.1958 41.5552 27.9208 42.0011 25.5 42ZM25.5 38.6C29.4083 38.6 32.7187 37.2825 35.4312 34.6475C38.1437 32.0125 39.5 28.7967 39.5 25C39.5 21.2033 38.1437 17.9875 35.4312 15.3525C32.7187 12.7175 29.4083 11.4 25.5 11.4C21.5917 11.4 18.2812 12.7175 15.5687 15.3525C12.8562 17.9875 11.5 21.2033 11.5 25C11.5 28.7967 12.8562 32.0125 15.5687 34.6475C18.2812 37.2825 21.5917 38.6 25.5 38.6Z" fill="white"/>
</svg>
